<?xml version="1.0" encoding="UTF-8"?>
<svg width="40px" height="40px" viewBox="0 0 40 40" version="1.1" xmlns="http://www.w3.org/2000/svg" xmlns:xlink="http://www.w3.org/1999/xlink">
    <title>pluginIcon.svg</title>
    <defs>
        <rect id="path-1" x="0" y="0" width="40" height="40" rx="8"></rect>
    </defs>
    <g id="LOGO-定制" stroke="none" stroke-width="1" fill="none" fill-rule="evenodd">
        <g id="图标规范-copy-2" transform="translate(-1787, -1215)">
            <g id="pluginIcon.svg" transform="translate(1787, 1215)">
                <mask id="mask-2" fill="white">
                    <use xlink:href="#path-1"></use>
                </mask>
                <g id="Rectangle"></g>
                <rect id="Rectangle" fill="#111113" fill-rule="nonzero" mask="url(#mask-2)" x="0" y="0" width="40" height="40"></rect>
                <g id="Clipped" mask="url(#mask-2)">
                    <g transform="translate(6.6408, 6.1207)" id="Group">
                        <path d="M13.2781942,0.658149142 C13.2429709,0.639358851 13.2077282,0.621745259 13.1725049,0.604129725 C13.1537087,0.59473555 13.1337476,0.586514191 13.1149709,0.577120016 C13.0515534,0.546587977 12.9881359,0.517228754 12.9247184,0.489044288 C12.8906602,0.473778268 12.8577864,0.459687006 12.8225437,0.444420987 C12.7497476,0.413887006 12.675767,0.385704482 12.6006019,0.358694773 C12.5806408,0.351648171 12.5606796,0.342253996 12.539534,0.335207395 C12.534835,0.334032637 12.5301553,0.331685064 12.5254563,0.330510307 C12.420932,0.294104482 12.3152427,0.260050113 12.2083689,0.229516132 C12.1813592,0.221296715 12.1543495,0.21542487 12.1273398,0.208378268 C12.0451456,0.186066812 11.961767,0.164928754 11.8783883,0.147313608 C11.8607767,0.143790696 11.8443301,0.137919045 11.8278835,0.134395938 C11.7914951,0.126175744 11.7550874,0.120304094 11.7186796,0.113258074 C11.697534,0.108560598 11.6752233,0.105037686 11.6540971,0.100340404 C11.569534,0.0850739965 11.4838058,0.0709819576 11.3969126,0.0592386567 C11.380466,0.0568899188 11.3640388,0.0557155499 11.3475922,0.0533670062 C11.2747767,0.0439722489 11.2031456,0.0357518606 11.129165,0.0287060353 C11.1033204,0.0263572974 11.0774951,0.0240085596 11.0516505,0.0216600159 C11.0293398,0.019311278 11.0070291,0.0169625984 10.9847184,0.0157882683 C10.9483107,0.0134396081 10.9119029,0.0122652586 10.8755146,0.00991659842 C10.8332233,0.00756793822 10.7909515,0.00521925861 10.7486796,0.00404492852 C10.6923107,0.00169626055 10.6347767,0.00169626055 10.5772233,0.000521925925 C10.5361165,0.000521925925 10.4938447,-0.000652407406 10.4527379,0.000521925925 C10.3928544,0.000521925925 10.3317864,0.00404492852 10.2707184,0.00521925861 C10.2319612,0.00639358871 10.1920388,0.00756793822 10.1532816,0.00991659842 C10.084,0.0134396081 10.0135534,0.019311278 9.94425243,0.0251829285 C9.91254369,0.0275316664 9.88085437,0.0298802101 9.84914563,0.0322289479 C9.84561165,0.0322289479 9.84209709,0.0322289479 9.83974757,0.0322289479 C9.78337864,0.0381005984 9.72582524,0.0463209868 9.66829126,0.0533670062 C9.62248544,0.0592386567 9.57786408,0.0639359382 9.53207767,0.0698075887 C9.46747573,0.079202346 9.4028932,0.090945647 9.33831068,0.101514579 C9.29601942,0.108560598 9.25374757,0.114432443 9.21147573,0.122652637 C9.13866019,0.136744676 9.06467961,0.152011084 8.99069903,0.168451666 C8.95547573,0.175497686 8.92141748,0.182543705 8.88617476,0.190764094 C8.77697087,0.21542487 8.66776699,0.243609336 8.55854369,0.274141375 L7.83867961,0.471430696 C7.71184466,0.506659822 7.58619417,0.544238462 7.46054369,0.585339433 C7.41943689,0.59825788 7.37951456,0.613523899 7.33840777,0.627617103 C7.25386408,0.656974385 7.16930097,0.686333608 7.08592233,0.716865647 C7.03895146,0.734481181 6.99198058,0.75326953 6.94384466,0.772059822 C6.86749515,0.802591861 6.79116505,0.833123899 6.71483495,0.866005453 C6.66669903,0.887143317 6.61737864,0.908283123 6.5692233,0.929420987 C6.49405825,0.963475356 6.42007767,0.997531666 6.34609709,1.03276079 C6.29912621,1.05507341 6.25215534,1.07738604 6.20518447,1.10087341 C6.1276699,1.13962681 6.05133981,1.17955303 5.97500971,1.22065594 C5.93273786,1.24296662 5.89046602,1.26527924 5.84935922,1.28759186 C5.75658252,1.33808895 5.66615534,1.39210837 5.57456311,1.44612778 C5.54990291,1.46021905 5.52524272,1.47431031 5.50058252,1.48957827 C5.39135922,1.55533943 5.28332039,1.62462681 5.17528155,1.69508701 C5.16941748,1.69860934 5.1635534,1.70330642 5.1576699,1.70682875 C5.13419417,1.72209671 5.11186408,1.73853749 5.0895534,1.75380351 C5.00266019,1.81252002 4.91693204,1.87123652 4.83238835,1.93230254 C4.79714563,1.95813361 4.76192233,1.98397827 4.72669903,2.00863846 C4.65271845,2.06382293 4.57871845,2.11902681 4.50592233,2.17539574 C4.47186408,2.20122099 4.43780583,2.2282307 4.40493204,2.25407536 C4.31801942,2.32335691 4.23112621,2.39382293 4.14539806,2.465454 C4.12895146,2.47953167 4.11252427,2.49246371 4.09607767,2.50537633 C4.09254369,2.50772584 4.08902913,2.5112404 4.08551456,2.51358992 C4.0678835,2.52887147 4.05145631,2.54529866 4.03384466,2.56056079 C3.93048544,2.64982293 3.82714563,2.74141516 3.72733981,2.83535691 C3.68623301,2.87294914 3.64747573,2.91168701 3.60636893,2.95044429 C3.52652427,3.02677438 3.44784466,3.10428895 3.36916505,3.18296856 C3.34801942,3.20411419 3.3268932,3.22407536 3.30574757,3.24520157 C3.28108738,3.26986176 3.2587767,3.29687147 3.2341165,3.32153167 C3.17539806,3.38378409 3.11667961,3.4460171 3.05914563,3.50943458 C3.01333981,3.55992002 2.96753398,3.61042487 2.92174757,3.66092972 C2.86419417,3.72551225 2.80900971,3.79127924 2.75264078,3.85586176 C2.7244466,3.88873555 2.69627184,3.92044429 2.66926214,3.95333749 C2.65281553,3.97329866 2.63636893,3.99442487 2.61994175,4.01440545 C2.57178641,4.07310448 2.52481553,4.13182293 2.47900971,4.19172584 C2.43438835,4.24925982 2.38858252,4.30681322 2.34396117,4.3643472 C2.29817476,4.4242307 2.2535534,4.48529866 2.20891262,4.54636662 C2.18073786,4.5851239 2.15137864,4.62269671 2.12318447,4.66261905 C2.10792233,4.68376468 2.09500971,4.70491031 2.07974757,4.72603652 C2.03864078,4.78475497 1.99871845,4.84465788 1.95761165,4.90337633 C1.91533592,4.96560934 1.87306019,5.02784235 1.83195728,5.09125982 C1.79320583,5.15114332 1.75445243,5.21221128 1.71687379,5.27327924 C1.69103883,5.31320157 1.66520194,5.35314332 1.64054175,5.3942307 C1.62644854,5.41772584 1.61353204,5.44238604 1.59826602,5.46588118 C1.56068738,5.52811419 1.52428155,5.5903472 1.48905243,5.65376468 C1.45147379,5.7183472 1.4150699,5.78294914 1.37866408,5.84869671 C1.34343495,5.91211419 1.30937864,5.97671613 1.27532427,6.04011419 C1.25418641,6.08005594 1.23069903,6.11997827 1.21073592,6.16108506 C1.19781748,6.18574526 1.18724854,6.21040545 1.1743301,6.23506565 C1.13792621,6.30669671 1.1038699,6.37832778 1.06864078,6.44995885 C1.03810874,6.51337633 1.00757476,6.5767938 0.978217476,6.64137633 C0.945335922,6.71419186 0.913629126,6.78700739 0.88192233,6.85980351 C0.863132039,6.90325982 0.841994175,6.94671613 0.824378641,6.99133749 C0.816159223,7.01011419 0.809112621,7.03009477 0.800893204,7.05005594 C0.760965049,7.14516273 0.724561165,7.24147341 0.686982524,7.33892972 C0.667019417,7.39059963 0.647054369,7.44110448 0.628266019,7.49277438 C0.582466019,7.61725982 0.540190291,7.74291031 0.49908932,7.86972584 C0.492042718,7.89087147 0.483823301,7.9120171 0.476776699,7.93432778 C0.476776699,7.9366773 0.475601942,7.94019186 0.474427184,7.94254138 C0.470904854,7.95193943 0.46855534,7.96250254 0.46503301,7.9719006 C0.428629126,8.08698798 0.395747573,8.20207536 0.362866019,8.31716273 C0.353471845,8.35122099 0.344075728,8.38409477 0.335856311,8.41815303 C0.305324272,8.53205594 0.275965049,8.64714332 0.250130097,8.7622307 C0.247780583,8.77397827 0.244258252,8.78570642 0.241908738,8.797454 C0.218423301,8.89844429 0.197285437,8.999454 0.177321359,9.10160934 C0.173798252,9.12040545 0.171449515,9.1380171 0.167926602,9.15681322 C0.151485825,9.24135691 0.138568155,9.3259006 0.124476311,9.41162875 C0.113907184,9.47388118 0.103338252,9.53729866 0.0939434951,9.59953167 C0.0810258252,9.68877438 0.0716312621,9.77803652 0.0610621359,9.86727924 C0.0540161165,9.92599769 0.0457959223,9.98471613 0.0410984466,10.0434346 C0.0317038835,10.1420754 0.0246578641,10.2418812 0.0187861748,10.3417064 C0.0152631845,10.3910268 0.0105658447,10.4391822 0.00821716505,10.4885025 C0.00352300971,10.6329491 0,10.7820948 0,10.9300559 L0,15.5663278 C0,17.2561919 0.479128155,18.6994346 1.30116117,19.7869297 C1.38336505,19.8960559 1.46909126,20.000522 1.55716699,20.1028521 C1.69104078,20.2554734 1.83078641,20.3999394 1.97875728,20.5348909 C2.32283495,20.8508132 2.7056699,21.1209103 3.12021359,21.3393569 L13.4249903,26.7717841 C11.5319612,25.7737258 10.3059612,23.7032404 10.3047767,20.9987744 L10.3047767,16.362522 C10.3047767,16.2145608 10.3083107,16.0654152 10.3153592,15.917454 C10.3177087,15.8681336 10.3223883,15.8199783 10.3259223,15.7706579 C10.3329709,15.6708326 10.338835,15.5721919 10.348233,15.4723666 C10.3540971,15.4136676 10.3623301,15.3549491 10.3681942,15.2962307 C10.3787573,15.2069686 10.3881553,15.1177258 10.401068,15.0284831 C10.410466,14.9662307 10.4210485,14.9028326 10.4316117,14.8405802 C10.4457087,14.7560365 10.4597864,14.6703084 10.475068,14.5857453 C10.4973786,14.4659783 10.5220388,14.3461919 10.5490485,14.2275899 C10.5513981,14.2158423 10.5549126,14.2040948 10.5572621,14.1923472 C10.5842718,14.0772598 10.612466,13.9621724 10.6429903,13.8482695 C10.6523883,13.8153957 10.6606019,13.7813375 10.67,13.7484443 C10.7017087,13.6333763 10.735767,13.5171045 10.7721748,13.4032016 C10.7756893,13.3938035 10.7780388,13.3832404 10.7815534,13.3738423 C10.7886019,13.3503472 10.798,13.325687 10.806233,13.3022113 C10.8473204,13.1765608 10.8895922,13.0497258 10.9353981,12.9252404 C10.9541942,12.8735705 10.9741553,12.8230851 10.9941165,12.7714152 C11.0305243,12.6751045 11.0680971,12.5788132 11.1080194,12.482522 C11.1338641,12.4191045 11.1620388,12.355687 11.1890485,12.293454 C11.2207573,12.2206385 11.252466,12.1478423 11.2853592,12.0750268 C11.3147184,12.0104443 11.3452427,11.9470268 11.375767,11.8836093 C11.4098252,11.8119783 11.445068,11.7403472 11.4814757,11.6687161 C11.5143495,11.6029491 11.5484078,11.5383666 11.582466,11.4725996 C11.6165243,11.4079977 11.6505631,11.3445996 11.6858058,11.2811822 C11.7222136,11.2154152 11.7586019,11.1508326 11.7961942,11.0862307 C11.8325825,11.0239977 11.8689903,10.9605802 11.9053981,10.8983472 C11.9441553,10.8337647 11.9840777,10.7703472 12.024,10.7069297 C12.0615922,10.6458618 12.1003301,10.5859783 12.1390874,10.5249103 C12.1801942,10.4614928 12.222466,10.3992598 12.2647379,10.3370074 C12.3046796,10.2771239 12.3446019,10.2184055 12.3868738,10.159687 C12.4291456,10.0998035 12.4726019,10.0399006 12.5160583,9.98118215 C12.5606796,9.92013361 12.605301,9.85906565 12.6511068,9.79916273 C12.6957282,9.74044429 12.7403495,9.68407536 12.7861553,9.62654138 C12.8331262,9.56782293 12.8800971,9.50793943 12.927068,9.44922099 C12.9705243,9.39636662 13.0151456,9.34353167 13.059767,9.2906773 C13.1161359,9.22491031 13.1713398,9.15916273 13.2288738,9.09456079 C13.2734951,9.04407536 13.319301,8.9935705 13.3651068,8.94308506 C13.4226408,8.87966759 13.4813592,8.81743458 13.5400777,8.75518215 C13.584699,8.70821128 13.6293204,8.66240545 13.6751262,8.61661905 C13.7526214,8.53793943 13.8324854,8.46042487 13.9123301,8.38409477 C13.9522718,8.34533749 13.9921942,8.30658021 14.033301,8.26900739 C14.1342913,8.17506565 14.2364466,8.08347341 14.3398058,7.99421128 C14.360932,7.97659963 14.3808932,7.95663846 14.4020388,7.93902681 C14.418466,7.92492972 14.4349126,7.9120171 14.4513592,7.89910448 C14.5370874,7.827454 14.6228155,7.75700739 14.7108932,7.68772584 C14.744932,7.66069671 14.7789903,7.63487147 14.8130485,7.60902681 C14.8858641,7.55265788 14.9598447,7.49628895 15.0338252,7.44228895 C15.069068,7.41644429 15.1042913,7.39059963 15.1395146,7.36477438 C15.2240777,7.30370642 15.3109709,7.24382293 15.396699,7.18626953 C15.4190097,7.17100739 15.4413204,7.15456079 15.4647961,7.14048312 C15.577534,7.06531807 15.6914563,6.99368701 15.8065437,6.92322099 C15.8312039,6.9091239 15.8558641,6.89504623 15.8793398,6.88094914 C15.9709515,6.82692972 16.0625437,6.77291031 16.1553204,6.72240545 C16.1964078,6.69892972 16.238699,6.67778409 16.2809709,6.65547341 C16.357301,6.61436662 16.4348155,6.57444429 16.5123107,6.53568701 C16.5592816,6.51221128 16.6050874,6.4899006 16.6520583,6.46758992 C16.7260388,6.4323472 16.8012039,6.3971239 16.8763495,6.36306565 C16.9245049,6.34192002 16.9726602,6.3207938 17.0207961,6.29964817 C17.0971262,6.26677438 17.1734563,6.2362307 17.2509709,6.20570642 C17.2979417,6.18691031 17.3449126,6.16813361 17.3918835,6.15052196 C17.4752621,6.11881322 17.5598252,6.089454 17.6443689,6.06125982 C17.6854757,6.04716273 17.7253981,6.03308506 17.7665049,6.01898798 C17.8921553,5.97788118 18.0178058,5.94030837 18.1446408,5.90508506 L18.8645049,5.70778409 C18.9748932,5.67725982 19.0840971,5.65025011 19.1921359,5.62558992 C19.2297282,5.61735691 19.2661165,5.61032778 19.3025243,5.60209477 C19.3741553,5.58683264 19.4458252,5.57038604 19.5163107,5.55747341 C19.5598058,5.54925982 19.6031068,5.54337633 19.6466019,5.53632778 C19.7100971,5.52576468 19.7733981,5.5140171 19.8368932,5.50461905 C19.8827184,5.49758992 19.9285437,5.49405594 19.9741748,5.48819186 C20.0341748,5.48114332 20.0939806,5.47291031 20.1539806,5.46704623 C20.1856311,5.46353167 20.2161165,5.4623472 20.2479612,5.45999769 C20.3182524,5.45413361 20.3887379,5.44825011 20.4580583,5.44473555 C20.4968932,5.44238604 20.535534,5.44238604 20.5743689,5.44003652 C20.6353398,5.43768701 20.6965049,5.43533749 20.7574757,5.43417244 C20.7998058,5.43417244 20.8409709,5.43417244 20.8819417,5.43417244 C20.9396117,5.43417244 20.9970874,5.43417244 21.0533981,5.43768701 C21.0957282,5.43887147 21.1380583,5.44122099 21.1801942,5.4435705 C21.2390291,5.44708506 21.2976699,5.45059963 21.3553398,5.45529866 C21.381165,5.45764817 21.4069903,5.45999769 21.4328155,5.4623472 C21.5056311,5.46939574 21.5784466,5.47760934 21.6512621,5.48700739 C21.6675728,5.48935691 21.6840777,5.49054138 21.7005825,5.49289089 C21.7873786,5.50461905 21.8732039,5.51871613 21.9576699,5.53397827 C21.978835,5.53751225 22.001165,5.54221128 22.0223301,5.54691031 C22.0763107,5.55747341 22.1291262,5.56922099 22.1831068,5.58096856 C22.2666019,5.59974526 22.3499029,5.62089089 22.4320388,5.6420171 C22.4592233,5.64906565 22.4862136,5.65611419 22.5132039,5.66316273 C22.62,5.69368701 22.7256311,5.72658021 22.8302913,5.76298798 C22.8561165,5.77236662 22.8807767,5.78176468 22.9066019,5.79116273 C22.9805825,5.81817244 23.0545631,5.84636662 23.1273786,5.87689089 C23.1613592,5.89098798 23.195534,5.90625011 23.2295146,5.92151225 C23.2941748,5.94970642 23.3574757,5.97906565 23.4198058,6.00958992 C23.4749515,6.03659963 23.528932,6.06244429 23.5829126,6.09061905 L13.2781942,0.658149142 Z" id="Path" fill="#FFFFFF" fill-rule="nonzero"></path>
                        <path d="M16.1903866,6.70300301 C16.220309,6.68689427 16.2506585,6.67148262 16.281008,6.65546514 C16.3573381,6.61436223 16.4348332,6.57443602 16.5123478,6.53568262 C16.5593187,6.51219524 16.6051245,6.48988262 16.6520954,6.46757 C16.7260759,6.43234087 16.801241,6.3971098 16.8763866,6.36305543 L17.0208332,6.2996399 C17.0971633,6.26676029 17.1734934,6.23622631 17.251008,6.20569427 C17.2979789,6.18690398 17.3449497,6.16811563 17.3919206,6.15050009 C17.4752992,6.1187933 17.5598623,6.08943602 17.644406,6.06125155 C17.6855128,6.04715835 17.7254352,6.03306708 17.766542,6.01897582 C17.8921924,5.97787291 18.0178429,5.94029427 18.1446779,5.9050632 L18.864542,5.70777582 C18.9749303,5.67724378 19.0841342,5.65023407 19.192173,5.62557272 C19.2297653,5.61735252 19.2661536,5.61030689 19.3025614,5.60208592 C19.3741924,5.58681912 19.4458429,5.57037854 19.5162895,5.55746106 C19.5597458,5.54924106 19.6032022,5.54336864 19.646639,5.53632242 C19.7100565,5.52575427 19.773474,5.51401097 19.8368915,5.50461602 C19.8826779,5.49756922 19.9284837,5.49404708 19.9742895,5.48817582 C20.034173,5.48112903 20.0940565,5.47290806 20.1539594,5.46703718 C20.1856682,5.46351466 20.2161924,5.46233951 20.2479012,5.45999116 C20.3183672,5.45411951 20.3888138,5.44824778 20.4581148,5.44472493 C20.4968526,5.44237611 20.5356099,5.44237611 20.5743672,5.44002767 C20.6354352,5.43767848 20.6965031,5.43532967 20.7575711,5.43415526 L20.8820371,5.43415526 C20.9395905,5.43415526 20.9971245,5.43415526 21.0534934,5.43767848 C21.0957653,5.43885289 21.1380565,5.44120097 21.1803284,5.44355015 C21.2390468,5.44707264 21.2977653,5.45059623 21.3552992,5.45529272 L21.4328138,5.46233951 C21.5056099,5.46938573 21.5784255,5.47760573 21.651241,5.48700068 C21.6676682,5.48934903 21.6841148,5.4905232 21.7005614,5.49287194 C21.7874546,5.50461485 21.8731827,5.51870786 21.9577458,5.5339733 C21.9788721,5.5374966 22.0011827,5.54219349 22.0223284,5.54689174 C22.0763478,5.55746029 22.1291827,5.56920378 22.1832022,5.58094708 C22.2665808,5.5997364 22.3499594,5.62087388 22.432173,5.64201272 L22.5132022,5.66315058 C22.6200371,5.69368262 22.7256682,5.72656417 22.8303284,5.76296806 C22.8561536,5.77236417 22.8808138,5.78175835 22.906639,5.79115446 C22.9806196,5.81816223 23.0546002,5.8463467 23.1274157,5.87687873 C23.1613963,5.89097 23.1955711,5.90623796 23.2295517,5.92150398 C23.2942119,5.94968844 23.3575128,5.97904573 23.4198429,6.00957971 C23.4452798,6.02201272 23.4703284,6.03419718 23.4953769,6.04647679 L23.5769303,6.08949233 C25.5720759,7.14169621 26.7182895,9.25550009 26.7182895,11.8895195 L26.7182895,16.5257914 L26.7136293,16.5210923 L26.7136293,24.8988399 C26.7136293,26.3526263 25.2105225,27.3190341 23.8881924,26.716704 L21.6252216,25.685636 L21.5512216,25.7361215 C21.4443672,25.8066069 21.3363284,25.8747622 21.2271051,25.9403933 C21.2118429,25.9487428 21.1977458,25.9568982 21.1836682,25.9650535 L21.1531245,25.9827234 C21.0615323,26.036704 20.9711051,26.0906846 20.8783478,26.14117 C20.8513187,26.1565098 20.8231439,26.1706846 20.7949691,26.1858302 L20.7526779,26.2081603 C20.6763478,26.2493253 20.6000177,26.2891312 20.5225031,26.3279661 L20.4062507,26.3842768 L20.3815905,26.3961215 C20.3076099,26.4312671 20.2336293,26.4654418 20.1584643,26.4994224 C20.1091439,26.5205875 20.061008,26.5417525 20.0128526,26.5629176 C19.9376876,26.5957331 19.8601924,26.6262185 19.7838623,26.656704 L19.7498041,26.6708787 C19.7145614,26.6850535 19.6793381,26.7001991 19.6429303,26.7132088 C19.5595517,26.7436943 19.475008,26.7730147 19.3904643,26.802335 L19.343474,26.8188399 C19.3188138,26.8281603 19.2941536,26.8365098 19.2683284,26.8446651 C19.1332798,26.8893253 19.0087944,26.925636 18.8901924,26.9586457 L18.1703284,27.1559273 C18.05994,27.1864127 17.9507167,27.2145681 17.8415128,27.2392282 C17.8192022,27.2438884 17.7968915,27.2487428 17.7745614,27.253403 L17.6994157,27.2685486 C17.6383478,27.2815583 17.5772798,27.2943739 17.5162119,27.3062185 C17.4892022,27.3120438 17.4621924,27.3155389 17.4351827,27.3201991 L17.341241,27.3355389 C17.2919206,27.3436943 17.2437653,27.3520438 17.1944449,27.3590341 C17.1639206,27.3636943 17.1333769,27.3671894 17.1028526,27.3706846 L17.0100759,27.3825292 L16.886775,27.396704 C16.8574157,27.4001991 16.8386196,27.4013642 16.8198429,27.4025292 L16.7822507,27.4060244 C16.7118041,27.4118496 16.6413381,27.4176749 16.5720565,27.4213642 C16.5450468,27.4236943 16.5180371,27.4236943 16.4921924,27.4260244 L16.4546196,27.4260244 C16.3853381,27.4295195 16.3277847,27.4318496 16.2702507,27.4318496 L16.1328526,27.4318496 C16.0799983,27.4306846 16.0259789,27.4306846 15.9731439,27.4283545 C15.9343866,27.4271894 15.8979789,27.4248593 15.860406,27.4225292 L15.8040371,27.4200049 C15.780542,27.4188399 15.7582313,27.4176749 15.7359206,27.4165098 L15.591474,27.4036943 C15.5174934,27.396704 15.4435128,27.3883545 15.3707167,27.3790341 L15.3225614,27.3732088 C15.2356488,27.3601991 15.14994,27.3460244 15.0642119,27.3308787 L14.9643866,27.3120438 C14.9385614,27.3073836 14.9127167,27.3027234 14.8880565,27.296704 C14.8774934,27.2943739 14.8680954,27.2920438 14.8575128,27.2897137 L14.8375517,27.2850535 C14.753008,27.2662185 14.6684643,27.2450535 14.5862507,27.2227234 L14.554542,27.2145681 C14.5381148,27.2110729 14.5216682,27.2064127 14.5052216,27.2017525 C14.3971827,27.1710729 14.2891439,27.1370923 14.1858041,27.1005875 L14.170542,27.0959273 C14.1599789,27.0912671 14.1482313,27.0866069 14.1352992,27.0819467 L14.110639,27.0724321 C14.0354934,27.0442768 13.9615128,27.0161215 13.8875323,26.985636 C13.8593381,26.9737914 13.8323284,26.9609758 13.8041536,26.9491312 L13.7853575,26.9409758 C13.7195905,26.9128205 13.656173,26.8835001 13.5927556,26.8528205 L13.5704449,26.842335 C13.5587167,26.8365098 13.5469691,26.8318496 13.5352216,26.8258302 C13.4988138,26.8071894 13.4635905,26.7895195 13.4283478,26.7706846 L13.2795128,26.692238 C11.4693963,25.6662185 10.3059594,23.6333253 10.3048138,20.9987816 L10.3048138,20.6054224 C10.3188138,20.5980244 10.3328332,20.5906069 10.3469109,20.5831312 L10.3891827,20.5608205 C10.4161924,20.5467234 10.4432022,20.5326263 10.4702119,20.5173642 C10.560639,20.4668593 10.6498818,20.4151894 10.7391245,20.3623545 L10.8107556,20.3200826 C10.9234934,20.2519661 11.0350662,20.1815001 11.1454546,20.1086846 L11.2112216,20.0628982 C11.2957653,20.0065292 11.3791439,19.9489758 11.4625225,19.8890923 C11.4953963,19.8656166 11.5271051,19.840937 11.5599983,19.8174613 C11.6386779,19.7599079 11.710309,19.7059079 11.78194,19.650704 L11.8019012,19.6354418 C11.8289109,19.6142962 11.8559206,19.594335 11.8817653,19.5731894 C11.966309,19.5050923 12.0508526,19.4369758 12.1342313,19.3665098 L12.1823866,19.3265875 C12.1929497,19.3171894 12.2046973,19.3066263 12.2152604,19.2972282 L12.2434546,19.2725681 C12.3456099,19.1844904 12.4454352,19.0952477 12.5440759,19.0036554 C12.5722701,18.9766457 12.5992798,18.9508011 12.6274546,18.9237914 L12.6615128,18.8909176 C12.7401924,18.8157525 12.817707,18.7406069 12.8940371,18.6630923 C12.9386585,18.6172865 12.9832798,18.5726651 13.0267361,18.5268593 C13.0842701,18.4657914 13.140639,18.4059079 13.197008,18.3436749 C13.2416293,18.2943545 13.2862701,18.2450341 13.3308915,18.1945292 C13.3872604,18.1311117 13.4424449,18.0676943 13.4964643,18.0031117 L13.5046973,17.9937137 C13.5457847,17.9455778 13.5868915,17.8974224 13.6268138,17.848102 C13.6726196,17.7917331 13.7184255,17.7330147 13.7642119,17.6754807 C13.8088332,17.6191117 13.8522895,17.5639079 13.8957458,17.5063739 C13.9403672,17.4476554 13.9838235,17.388937 14.0272604,17.3290535 C14.0742507,17.2644516 14.114173,17.2092671 14.1540954,17.1528982 C14.1916682,17.0988787 14.2292604,17.0436749 14.2668332,16.9884904 C14.3138041,16.9180244 14.3549109,16.8581409 14.3948332,16.7958884 C14.4335905,16.7371894 14.4699983,16.678471 14.5075711,16.6185681 C14.5474934,16.556335 14.5862507,16.4940826 14.6238235,16.4306846 C14.6614157,16.3707816 14.696639,16.3085486 14.7318623,16.2474807 C14.7682701,16.1840826 14.8046779,16.1206651 14.8399012,16.0572477 C14.8739594,15.9949952 14.9080177,15.9315972 14.9408915,15.8693448 C14.9749497,15.8059273 15.0078429,15.7425292 15.0407167,15.6779273 C15.07594,15.6086457 15.1088332,15.5393642 15.1428915,15.4688982 C15.1722313,15.4066651 15.202775,15.3444127 15.2309497,15.2810147 C15.2638429,15.2105486 15.2955517,15.1389176 15.3260759,15.0672865 L15.334309,15.0473059 C15.3577847,14.9921215 15.3824449,14.9369176 15.4047556,14.8817331 C15.4435128,14.7877914 15.4799206,14.6926651 15.5163284,14.5987234 L15.5362895,14.545869 C15.5492022,14.5129952 15.5621148,14.4812865 15.5738623,14.4483933 C15.6184837,14.3262768 15.660775,14.2029758 15.7006973,14.0796554 L15.732406,13.9821991 C15.7676293,13.8694613 15.8005031,13.7567234 15.8322119,13.6439855 L15.8592216,13.5453448 C15.8897653,13.4337719 15.91794,13.3222185 15.9437847,13.2094807 L15.9519983,13.1754224 C15.9778429,13.05917 16.0013187,12.9428982 16.0236293,12.8254807 C16.0389109,12.7468011 16.0518235,12.668102 16.0647361,12.5894224 L16.0752992,12.5224904 C16.0823478,12.4790535 16.0893963,12.4367622 16.0952604,12.3933253 C16.107008,12.3158108 16.115241,12.2394807 16.1246196,12.1619661 L16.1352022,12.0739079 C16.1399012,12.0363156 16.1446002,11.9975583 16.1481148,11.9599855 C16.1575128,11.8672088 16.1633769,11.7732671 16.1692604,11.6804904 L16.1739594,11.6112088 C16.1762895,11.5818496 16.178639,11.5536749 16.1798235,11.5254807 C16.1868721,11.378704 16.1903866,11.2319079 16.1903866,11.0921603 L16.1903866,6.70300301 Z M3.16335039,21.3888886 L3.18665072,21.4122117 L3.20754093,21.4122117 L3.17205964,21.393504 C3.16915558,21.3919655 3.1662525,21.3904271 3.16335039,21.3888886 Z" id="Shape" fill="#2ADB5C"></path>
                    </g>
                </g>
            </g>
        </g>
    </g>
</svg>